<svg xmlns="http://www.w3.org/2000/svg" width="24" height="24" viewBox="0 0 24 24" fill="none">
  <path d="M12 14C13.1046 14 14 13.1046 14 12C14 10.8954 13.1046 10 12 10C10.8954 10 10 10.8954 10 12C10 13.1046 10.8954 14 12 14Z" stroke="#0F172A" stroke-width="1.5" stroke-linecap="round" stroke-linejoin="round"/>
  <path d="M16.2401 7.75999C16.7979 8.31723 17.2405 8.97896 17.5424 9.70735C17.8444 10.4357 17.9998 11.2165 17.9998 12.005C17.9998 12.7935 17.8444 13.5742 17.5424 14.3026C17.2405 15.031 16.7979 15.6928 16.2401 16.25M7.76006 16.24C7.2022 15.6828 6.75965 15.021 6.4577 14.2926C6.15576 13.5642 6.00034 12.7835 6.00034 11.995C6.00034 11.2065 6.15576 10.4257 6.4577 9.69735C6.75965 8.96896 7.2022 8.30723 7.76006 7.74999M19.0701 4.92999C20.9448 6.80527 21.9979 9.34835 21.9979 12C21.9979 14.6516 20.9448 17.1947 19.0701 19.07M4.93006 19.07C3.05535 17.1947 2.0022 14.6516 2.0022 12C2.0022 9.34835 3.05535 6.80527 4.93006 4.92999" stroke="#0F172A" stroke-width="1.5" stroke-linecap="round" stroke-linejoin="round"/>
</svg>