<svg xmlns="http://www.w3.org/2000/svg" width="24" height="24" viewBox="0 0 24 24" fill="none">
  <path d="M16.4224 18.8766V17.5433C16.4224 16.8361 16.08 16.1578 15.4705 15.6577C14.861 15.1576 14.0343 14.8766 13.1724 14.8766H6.67236C5.81041 14.8766 4.98376 15.1576 4.37427 15.6577C3.76477 16.1578 3.42236 16.8361 3.42236 17.5433V18.8766" stroke="#0F172A" stroke-width="1.5" stroke-linecap="round" stroke-linejoin="round"/>
  <path d="M9.42236 10.8766C11.0792 10.8766 12.4224 9.5335 12.4224 7.87665C12.4224 6.21979 11.0792 4.87665 9.42236 4.87665C7.76551 4.87665 6.42236 6.21979 6.42236 7.87665C6.42236 9.5335 7.76551 10.8766 9.42236 10.8766Z" stroke="#0F172A" stroke-width="1.5" stroke-linecap="round" stroke-linejoin="round"/>
  <path d="M20.4224 18.8766V17.5138C20.4219 16.9099 20.2253 16.3232 19.8633 15.8459C19.5013 15.3685 18.9944 15.0276 18.4224 14.8766" stroke="#0F172A" stroke-width="1.5" stroke-linecap="round" stroke-linejoin="round"/>
  <path d="M15.4224 4.87665C15.9945 5.0472 16.5016 5.43461 16.8637 5.97779C17.2258 6.52097 17.4224 7.18903 17.4224 7.87665C17.4224 8.56426 17.2258 9.23232 16.8637 9.7755C16.5016 10.3187 15.9945 10.7061 15.4224 10.8766" stroke="#0F172A" stroke-width="1.5" stroke-linecap="round" stroke-linejoin="round"/>
</svg>